<svg width="549" height="549" viewBox="0 0 549 549" fill="none" xmlns="http://www.w3.org/2000/svg">
<path d="M102.267 321.223L158.541 150.901C168.005 122.256 197.267 105.092 226.888 110.812L396.351 143.534C419.003 147.908 437.141 164.882 443.005 187.195L481.342 333.068C488.118 358.854 477.067 386.018 454.215 399.749L295.674 495.01C272.245 509.087 242.264 505.551 222.753 486.41L117.219 382.876C100.89 366.856 95.0906 342.944 102.267 321.223Z" fill="white" stroke="black" stroke-width="2"/>
<path d="M102.765 225.864L238.723 108.853C261.589 89.1736 295.511 89.5325 317.955 109.691L446.36 225.019C463.524 240.435 470.329 264.327 463.863 286.473L421.594 431.255C414.123 456.848 390.659 474.441 363.999 474.441H179.04C151.707 474.441 127.829 455.968 120.963 429.512L83.8277 286.412C78.0816 264.269 85.4263 240.786 102.765 225.864Z" fill="black" stroke="black"/>
<path d="M256.273 355.532C256.273 375.697 249.64 390.755 236.373 400.705C223.106 410.522 205.395 415.431 183.24 415.431C167.32 415.431 153.722 412.91 142.445 407.869C131.301 402.695 122.877 396.194 117.172 388.367C111.6 380.539 108.814 372.646 108.814 364.686C108.814 363.492 109.212 362.497 110.008 361.701C110.937 360.772 111.998 360.308 113.192 360.308H158.166C159.36 360.308 160.355 360.706 161.151 361.502C162.08 362.298 162.743 363.359 163.141 364.686C165.662 372.646 172.03 376.626 182.245 376.626C188.48 376.626 193.389 375.166 196.971 372.248C200.686 369.329 202.543 365.15 202.543 359.711V314.936H129.908C128.449 314.936 127.188 314.405 126.127 313.344C125.066 312.282 124.535 311.022 124.535 309.563V279.514C124.535 278.054 125.066 276.794 126.127 275.733C127.188 274.671 128.449 274.141 129.908 274.141H250.9C252.359 274.141 253.62 274.671 254.681 275.733C255.742 276.794 256.273 278.054 256.273 279.514V355.532ZM377.386 274.141C389.857 274.141 400.736 276.263 410.022 280.509C419.309 284.754 426.407 290.525 431.315 297.822C436.224 305.118 438.678 313.277 438.678 322.299C438.678 337.157 434.035 348.832 424.748 357.323C415.462 365.681 399.674 369.86 377.386 369.86H351.118V408.068C351.118 409.527 350.588 410.787 349.526 411.849C348.465 412.91 347.205 413.441 345.745 413.441H302.96C301.501 413.441 300.241 412.91 299.179 411.849C298.118 410.787 297.587 409.527 297.587 408.068V279.514C297.587 278.054 298.118 276.794 299.179 275.733C300.241 274.671 301.501 274.141 302.96 274.141H377.386ZM376.59 333.045C379.774 333.045 382.295 332.116 384.152 330.259C386.01 328.269 386.938 325.682 386.938 322.498C386.938 319.181 386.01 316.461 384.152 314.339C382.295 312.216 379.774 311.155 376.59 311.155H351.317V333.045H376.59Z" fill="white"/>
</svg>
