<svg viewBox="0 0 264 33" fill="none" xmlns="http://www.w3.org/2000/svg">
<path d="M16.7157 26.545L0.650703 19.72V15.24L16.7157 8.38V13.07L4.3957 18.285V16.675L16.7157 21.89V26.545ZM20.8862 31.2L32.5062 2.325H37.5112L25.8912 31.2H20.8862ZM127.521 32.95C125.561 32.95 124.033 32.4483 122.936 31.445C121.863 30.465 121.326 29.0883 121.326 27.315V21.19C121.326 20.5367 121.175 20.035 120.871 19.685C120.568 19.3117 120.113 19.125 119.506 19.125H118.421V15.1H119.506C120.113 15.1 120.568 14.9133 120.871 14.54C121.175 14.1667 121.326 13.665 121.326 13.035V6.525C121.326 4.775 121.863 3.41 122.936 2.43C124.033 1.42666 125.561 0.924998 127.521 0.924998H129.131V4.95H127.521C127.031 4.95 126.646 5.10166 126.366 5.405C126.086 5.685 125.958 6.09333 125.981 6.63V12.65C125.981 13.5833 125.795 14.435 125.421 15.205C125.071 15.9517 124.558 16.57 123.881 17.06C124.558 17.4567 125.071 18.0283 125.421 18.775C125.795 19.5217 125.981 20.35 125.981 21.26V27.21C125.958 27.7233 126.086 28.1317 126.366 28.435C126.646 28.7617 127.031 28.925 127.521 28.925H129.131V32.95H127.521ZM142.097 27.42C140.137 27.42 138.422 26.9767 136.952 26.09C135.482 25.2033 134.338 24.0017 133.522 22.485C132.705 20.9683 132.297 19.2883 132.297 17.445C132.297 15.5317 132.705 13.84 133.522 12.37C134.362 10.8767 135.493 9.69833 136.917 8.835C138.363 7.97166 139.973 7.54 141.747 7.54C143.24 7.54 144.547 7.785 145.667 8.275C146.81 8.765 147.778 9.44167 148.572 10.305C149.365 11.1683 149.972 12.16 150.392 13.28C150.812 14.3767 151.022 15.5667 151.022 16.85C151.022 17.1767 150.998 17.515 150.952 17.865C150.928 18.215 150.87 18.5183 150.777 18.775H136.077V15.275H148.187L146.017 16.92C146.227 15.8467 146.168 14.89 145.842 14.05C145.538 13.21 145.025 12.545 144.302 12.055C143.602 11.565 142.75 11.32 141.747 11.32C140.79 11.32 139.938 11.565 139.192 12.055C138.445 12.5217 137.873 13.2217 137.477 14.155C137.103 15.065 136.963 16.1733 137.057 17.48C136.963 18.6467 137.115 19.685 137.512 20.595C137.932 21.4817 138.538 22.17 139.332 22.66C140.148 23.15 141.082 23.395 142.132 23.395C143.182 23.395 144.068 23.1733 144.792 22.73C145.538 22.2867 146.122 21.6917 146.542 20.945L150.252 22.765C149.878 23.675 149.295 24.48 148.502 25.18C147.708 25.88 146.763 26.4283 145.667 26.825C144.593 27.2217 143.403 27.42 142.097 27.42ZM154.147 32.95V28.925H155.757C156.247 28.925 156.632 28.7617 156.912 28.435C157.192 28.1317 157.332 27.7233 157.332 27.21V21.26C157.309 20.35 157.472 19.5217 157.822 18.775C158.196 18.0283 158.721 17.4567 159.397 17.06C158.721 16.57 158.196 15.9517 157.822 15.205C157.472 14.435 157.309 13.5833 157.332 12.65V6.63C157.332 6.09333 157.192 5.685 156.912 5.405C156.632 5.10166 156.247 4.95 155.757 4.95H154.147V0.924998H155.757C157.741 0.924998 159.269 1.42666 160.342 2.43C161.416 3.41 161.952 4.775 161.952 6.525V13.035C161.952 13.665 162.104 14.1667 162.407 14.54C162.734 14.9133 163.189 15.1 163.772 15.1H164.857V19.125H163.772C163.189 19.125 162.734 19.3117 162.407 19.685C162.104 20.035 161.952 20.5367 161.952 21.19V27.315C161.952 29.0883 161.416 30.465 160.342 31.445C159.269 32.4483 157.741 32.95 155.757 32.95H154.147ZM247.843 26.545V21.89L260.128 16.675V18.285L247.843 13.07V8.38L263.873 15.24V19.72L247.843 26.545Z" fill="#1FDF64"/>
<path d="M45.617 27V22.625H47.122C48.242 22.625 49.1286 22.31 49.782 21.68C50.4586 21.0267 50.797 20.1633 50.797 19.09V0.924998H55.592V18.915C55.592 20.525 55.242 21.9367 54.542 23.15C53.8653 24.3633 52.8853 25.3083 51.602 25.985C50.342 26.6617 48.8486 27 47.122 27H45.617ZM61.0722 31.025V27H78.1172V31.025H61.0722ZM83.7202 27V0.924998H93.4502C95.2235 0.924998 96.7869 1.25167 98.1402 1.905C99.5169 2.535 100.59 3.46833 101.36 4.705C102.13 5.91833 102.515 7.4 102.515 9.15C102.515 10.8767 102.119 12.3583 101.325 13.595C100.555 14.8083 99.4935 15.7417 98.1402 16.395C96.7869 17.0483 95.2235 17.375 93.4502 17.375H88.4802V27H83.7202ZM88.4802 13.175H93.5202C94.3835 13.175 95.1302 13.0117 95.7602 12.685C96.3902 12.335 96.8802 11.8567 97.2302 11.25C97.5802 10.6433 97.7552 9.94333 97.7552 9.15C97.7552 8.33333 97.5802 7.63333 97.2302 7.05C96.8802 6.44333 96.3902 5.97667 95.7602 5.65C95.1302 5.3 94.3835 5.125 93.5202 5.125H88.4802V13.175ZM106.031 27V7.96H110.336V12.195L109.986 11.565C110.429 10.1417 111.117 9.15 112.051 8.59C113.007 8.03 114.151 7.75 115.481 7.75H116.601V11.81H114.956C113.649 11.81 112.599 12.2183 111.806 13.035C111.012 13.8283 110.616 14.9483 110.616 16.395V27H106.031ZM175.688 27.42C173.658 27.42 171.884 26.9417 170.368 25.985C168.874 25.005 167.848 23.6867 167.288 22.03L170.718 20.385C171.208 21.4583 171.884 22.2983 172.748 22.905C173.634 23.5117 174.614 23.815 175.688 23.815C176.528 23.815 177.193 23.6283 177.683 23.255C178.173 22.8817 178.418 22.3917 178.418 21.785C178.418 21.4117 178.313 21.1083 178.103 20.875C177.916 20.6183 177.648 20.4083 177.298 20.245C176.971 20.0583 176.609 19.9067 176.213 19.79L173.098 18.915C171.488 18.4483 170.263 17.7367 169.423 16.78C168.606 15.8233 168.198 14.6917 168.198 13.385C168.198 12.2183 168.489 11.2033 169.073 10.34C169.679 9.45333 170.508 8.765 171.558 8.275C172.631 7.785 173.856 7.54 175.233 7.54C177.029 7.54 178.616 7.97166 179.993 8.835C181.369 9.69833 182.349 10.9117 182.933 12.475L179.433 14.12C179.106 13.2567 178.558 12.5683 177.788 12.055C177.018 11.5417 176.154 11.285 175.198 11.285C174.428 11.285 173.821 11.46 173.378 11.81C172.934 12.16 172.713 12.615 172.713 13.175C172.713 13.525 172.806 13.8283 172.993 14.085C173.179 14.3417 173.436 14.5517 173.763 14.715C174.113 14.8783 174.509 15.03 174.953 15.17L177.998 16.08C179.561 16.5467 180.763 17.2467 181.603 18.18C182.466 19.1133 182.898 20.2567 182.898 21.61C182.898 22.7533 182.594 23.7683 181.988 24.655C181.381 25.5183 180.541 26.195 179.468 26.685C178.394 27.175 177.134 27.42 175.688 27.42ZM195.101 27.21C192.954 27.21 191.286 26.6267 190.096 25.46C188.929 24.27 188.346 22.6017 188.346 20.455V12.055H185.056V7.96H185.406C186.339 7.96 187.063 7.715 187.576 7.225C188.089 6.735 188.346 6.02333 188.346 5.09V3.62H192.931V7.96H197.306V12.055H192.931V20.21C192.931 20.84 193.036 21.3767 193.246 21.82C193.479 22.2633 193.829 22.6017 194.296 22.835C194.786 23.0683 195.404 23.185 196.151 23.185C196.314 23.185 196.501 23.1733 196.711 23.15C196.944 23.1267 197.166 23.1033 197.376 23.08V27C197.049 27.0467 196.676 27.0933 196.256 27.14C195.836 27.1867 195.451 27.21 195.101 27.21ZM209.738 27.42C207.778 27.42 206.063 26.9767 204.593 26.09C203.123 25.2033 201.98 24.0017 201.163 22.485C200.347 20.9683 199.938 19.2883 199.938 17.445C199.938 15.5317 200.347 13.84 201.163 12.37C202.003 10.8767 203.135 9.69833 204.558 8.835C206.005 7.97166 207.615 7.54 209.388 7.54C210.882 7.54 212.188 7.785 213.308 8.275C214.452 8.765 215.42 9.44167 216.213 10.305C217.007 11.1683 217.613 12.16 218.033 13.28C218.453 14.3767 218.663 15.5667 218.663 16.85C218.663 17.1767 218.64 17.515 218.593 17.865C218.57 18.215 218.512 18.5183 218.418 18.775H203.718V15.275H215.828L213.658 16.92C213.868 15.8467 213.81 14.89 213.483 14.05C213.18 13.21 212.667 12.545 211.943 12.055C211.243 11.565 210.392 11.32 209.388 11.32C208.432 11.32 207.58 11.565 206.833 12.055C206.087 12.5217 205.515 13.2217 205.118 14.155C204.745 15.065 204.605 16.1733 204.698 17.48C204.605 18.6467 204.757 19.685 205.153 20.595C205.573 21.4817 206.18 22.17 206.973 22.66C207.79 23.15 208.723 23.395 209.773 23.395C210.823 23.395 211.71 23.1733 212.433 22.73C213.18 22.2867 213.763 21.6917 214.183 20.945L217.893 22.765C217.52 23.675 216.937 24.48 216.143 25.18C215.35 25.88 214.405 26.4283 213.308 26.825C212.235 27.2217 211.045 27.42 209.738 27.42ZM229.384 27.42C227.354 27.42 225.581 26.9417 224.064 25.985C222.571 25.005 221.544 23.6867 220.984 22.03L224.414 20.385C224.904 21.4583 225.581 22.2983 226.444 22.905C227.331 23.5117 228.311 23.815 229.384 23.815C230.224 23.815 230.889 23.6283 231.379 23.255C231.869 22.8817 232.114 22.3917 232.114 21.785C232.114 21.4117 232.009 21.1083 231.799 20.875C231.612 20.6183 231.344 20.4083 230.994 20.245C230.667 20.0583 230.306 19.9067 229.909 19.79L226.794 18.915C225.184 18.4483 223.959 17.7367 223.119 16.78C222.302 15.8233 221.894 14.6917 221.894 13.385C221.894 12.2183 222.186 11.2033 222.769 10.34C223.376 9.45333 224.204 8.765 225.254 8.275C226.327 7.785 227.552 7.54 228.929 7.54C230.726 7.54 232.312 7.97166 233.689 8.835C235.066 9.69833 236.046 10.9117 236.629 12.475L233.129 14.12C232.802 13.2567 232.254 12.5683 231.484 12.055C230.714 11.5417 229.851 11.285 228.894 11.285C228.124 11.285 227.517 11.46 227.074 11.81C226.631 12.16 226.409 12.615 226.409 13.175C226.409 13.525 226.502 13.8283 226.689 14.085C226.876 14.3417 227.132 14.5517 227.459 14.715C227.809 14.8783 228.206 15.03 228.649 15.17L231.694 16.08C233.257 16.5467 234.459 17.2467 235.299 18.18C236.162 19.1133 236.594 20.2567 236.594 21.61C236.594 22.7533 236.291 23.7683 235.684 24.655C235.077 25.5183 234.237 26.195 233.164 26.685C232.091 27.175 230.831 27.42 229.384 27.42Z" fill="#000"/>
</svg>
